<mxfile host="app.diagrams.net" modified="2021-01-02T12:35:45.954Z" agent="5.0 (Macintosh; Intel Mac OS X 10_14_6) AppleWebKit/537.36 (KHTML, like Gecko) Chrome/87.0.4280.67 Safari/537.36" etag="HUGWaHQX0REEdWNWM7Ld" version="14.0.1" type="github">
  <diagram id="dEB8XlI67_u_IVw_Vs-G" name="ページ1">
    <mxGraphModel dx="1113" dy="667" grid="1" gridSize="10" guides="1" tooltips="1" connect="1" arrows="1" fold="1" page="1" pageScale="1" pageWidth="1654" pageHeight="1169" math="0" shadow="0">
      <root>
        <mxCell id="0" />
        <mxCell id="1" parent="0" />
        <mxCell id="pdT_NjHJpdxYsYQ8o59m-1" value="USER" style="shape=table;startSize=30;container=1;collapsible=1;childLayout=tableLayout;fixedRows=1;rowLines=0;fontStyle=1;align=center;resizeLast=1;" vertex="1" parent="1">
          <mxGeometry x="40" y="40" width="180" height="290" as="geometry" />
        </mxCell>
        <mxCell id="pdT_NjHJpdxYsYQ8o59m-2" value="" style="shape=partialRectangle;collapsible=0;dropTarget=0;pointerEvents=0;fillColor=none;top=0;left=0;bottom=1;right=0;points=[[0,0.5],[1,0.5]];portConstraint=eastwest;" vertex="1" parent="pdT_NjHJpdxYsYQ8o59m-1">
          <mxGeometry y="30" width="180" height="30" as="geometry" />
        </mxCell>
        <mxCell id="pdT_NjHJpdxYsYQ8o59m-3" value="PK" style="shape=partialRectangle;connectable=0;fillColor=none;top=0;left=0;bottom=0;right=0;fontStyle=1;overflow=hidden;" vertex="1" parent="pdT_NjHJpdxYsYQ8o59m-2">
          <mxGeometry width="30" height="30" as="geometry" />
        </mxCell>
        <mxCell id="pdT_NjHJpdxYsYQ8o59m-4" value="ID" style="shape=partialRectangle;connectable=0;fillColor=none;top=0;left=0;bottom=0;right=0;align=left;spacingLeft=6;fontStyle=5;overflow=hidden;" vertex="1" parent="pdT_NjHJpdxYsYQ8o59m-2">
          <mxGeometry x="30" width="150" height="30" as="geometry" />
        </mxCell>
        <mxCell id="pdT_NjHJpdxYsYQ8o59m-5" value="" style="shape=partialRectangle;collapsible=0;dropTarget=0;pointerEvents=0;fillColor=none;top=0;left=0;bottom=0;right=0;points=[[0,0.5],[1,0.5]];portConstraint=eastwest;" vertex="1" parent="pdT_NjHJpdxYsYQ8o59m-1">
          <mxGeometry y="60" width="180" height="30" as="geometry" />
        </mxCell>
        <mxCell id="pdT_NjHJpdxYsYQ8o59m-6" value="" style="shape=partialRectangle;connectable=0;fillColor=none;top=0;left=0;bottom=0;right=0;editable=1;overflow=hidden;" vertex="1" parent="pdT_NjHJpdxYsYQ8o59m-5">
          <mxGeometry width="30" height="30" as="geometry" />
        </mxCell>
        <mxCell id="pdT_NjHJpdxYsYQ8o59m-7" value="メールアドレス" style="shape=partialRectangle;connectable=0;fillColor=none;top=0;left=0;bottom=0;right=0;align=left;spacingLeft=6;overflow=hidden;" vertex="1" parent="pdT_NjHJpdxYsYQ8o59m-5">
          <mxGeometry x="30" width="150" height="30" as="geometry" />
        </mxCell>
        <mxCell id="pdT_NjHJpdxYsYQ8o59m-8" value="" style="shape=partialRectangle;collapsible=0;dropTarget=0;pointerEvents=0;fillColor=none;top=0;left=0;bottom=0;right=0;points=[[0,0.5],[1,0.5]];portConstraint=eastwest;" vertex="1" parent="pdT_NjHJpdxYsYQ8o59m-1">
          <mxGeometry y="90" width="180" height="30" as="geometry" />
        </mxCell>
        <mxCell id="pdT_NjHJpdxYsYQ8o59m-9" value="" style="shape=partialRectangle;connectable=0;fillColor=none;top=0;left=0;bottom=0;right=0;editable=1;overflow=hidden;" vertex="1" parent="pdT_NjHJpdxYsYQ8o59m-8">
          <mxGeometry width="30" height="30" as="geometry" />
        </mxCell>
        <mxCell id="pdT_NjHJpdxYsYQ8o59m-10" value="ニックネーム" style="shape=partialRectangle;connectable=0;fillColor=none;top=0;left=0;bottom=0;right=0;align=left;spacingLeft=6;overflow=hidden;" vertex="1" parent="pdT_NjHJpdxYsYQ8o59m-8">
          <mxGeometry x="30" width="150" height="30" as="geometry" />
        </mxCell>
        <mxCell id="pdT_NjHJpdxYsYQ8o59m-11" value="" style="shape=partialRectangle;collapsible=0;dropTarget=0;pointerEvents=0;fillColor=none;top=0;left=0;bottom=0;right=0;points=[[0,0.5],[1,0.5]];portConstraint=eastwest;" vertex="1" parent="pdT_NjHJpdxYsYQ8o59m-1">
          <mxGeometry y="120" width="180" height="30" as="geometry" />
        </mxCell>
        <mxCell id="pdT_NjHJpdxYsYQ8o59m-12" value="" style="shape=partialRectangle;connectable=0;fillColor=none;top=0;left=0;bottom=0;right=0;editable=1;overflow=hidden;" vertex="1" parent="pdT_NjHJpdxYsYQ8o59m-11">
          <mxGeometry width="30" height="30" as="geometry" />
        </mxCell>
        <mxCell id="pdT_NjHJpdxYsYQ8o59m-13" value="パスワード" style="shape=partialRectangle;connectable=0;fillColor=none;top=0;left=0;bottom=0;right=0;align=left;spacingLeft=6;overflow=hidden;" vertex="1" parent="pdT_NjHJpdxYsYQ8o59m-11">
          <mxGeometry x="30" width="150" height="30" as="geometry" />
        </mxCell>
        <mxCell id="pdT_NjHJpdxYsYQ8o59m-14" value="" style="shape=partialRectangle;collapsible=0;dropTarget=0;pointerEvents=0;fillColor=none;top=0;left=0;bottom=0;right=0;points=[[0,0.5],[1,0.5]];portConstraint=eastwest;" vertex="1" parent="pdT_NjHJpdxYsYQ8o59m-1">
          <mxGeometry y="150" width="180" height="30" as="geometry" />
        </mxCell>
        <mxCell id="pdT_NjHJpdxYsYQ8o59m-15" value="" style="shape=partialRectangle;connectable=0;fillColor=none;top=0;left=0;bottom=0;right=0;editable=1;overflow=hidden;" vertex="1" parent="pdT_NjHJpdxYsYQ8o59m-14">
          <mxGeometry width="30" height="30" as="geometry" />
        </mxCell>
        <mxCell id="pdT_NjHJpdxYsYQ8o59m-16" value="画像" style="shape=partialRectangle;connectable=0;fillColor=none;top=0;left=0;bottom=0;right=0;align=left;spacingLeft=6;overflow=hidden;" vertex="1" parent="pdT_NjHJpdxYsYQ8o59m-14">
          <mxGeometry x="30" width="150" height="30" as="geometry" />
        </mxCell>
        <mxCell id="pdT_NjHJpdxYsYQ8o59m-17" value="" style="shape=partialRectangle;collapsible=0;dropTarget=0;pointerEvents=0;fillColor=none;top=0;left=0;bottom=0;right=0;points=[[0,0.5],[1,0.5]];portConstraint=eastwest;" vertex="1" parent="pdT_NjHJpdxYsYQ8o59m-1">
          <mxGeometry y="180" width="180" height="30" as="geometry" />
        </mxCell>
        <mxCell id="pdT_NjHJpdxYsYQ8o59m-18" value="" style="shape=partialRectangle;connectable=0;fillColor=none;top=0;left=0;bottom=0;right=0;editable=1;overflow=hidden;" vertex="1" parent="pdT_NjHJpdxYsYQ8o59m-17">
          <mxGeometry width="30" height="30" as="geometry" />
        </mxCell>
        <mxCell id="pdT_NjHJpdxYsYQ8o59m-19" value="自己紹介" style="shape=partialRectangle;connectable=0;fillColor=none;top=0;left=0;bottom=0;right=0;align=left;spacingLeft=6;overflow=hidden;" vertex="1" parent="pdT_NjHJpdxYsYQ8o59m-17">
          <mxGeometry x="30" width="150" height="30" as="geometry" />
        </mxCell>
        <mxCell id="pdT_NjHJpdxYsYQ8o59m-71" value="" style="shape=partialRectangle;collapsible=0;dropTarget=0;pointerEvents=0;fillColor=none;top=0;left=0;bottom=0;right=0;points=[[0,0.5],[1,0.5]];portConstraint=eastwest;" vertex="1" parent="pdT_NjHJpdxYsYQ8o59m-1">
          <mxGeometry y="210" width="180" height="30" as="geometry" />
        </mxCell>
        <mxCell id="pdT_NjHJpdxYsYQ8o59m-72" value="" style="shape=partialRectangle;connectable=0;fillColor=none;top=0;left=0;bottom=0;right=0;editable=1;overflow=hidden;" vertex="1" parent="pdT_NjHJpdxYsYQ8o59m-71">
          <mxGeometry width="30" height="30" as="geometry" />
        </mxCell>
        <mxCell id="pdT_NjHJpdxYsYQ8o59m-73" value="登録日時" style="shape=partialRectangle;connectable=0;fillColor=none;top=0;left=0;bottom=0;right=0;align=left;spacingLeft=6;overflow=hidden;" vertex="1" parent="pdT_NjHJpdxYsYQ8o59m-71">
          <mxGeometry x="30" width="150" height="30" as="geometry" />
        </mxCell>
        <mxCell id="pdT_NjHJpdxYsYQ8o59m-75" value="" style="shape=partialRectangle;collapsible=0;dropTarget=0;pointerEvents=0;fillColor=none;top=0;left=0;bottom=0;right=0;points=[[0,0.5],[1,0.5]];portConstraint=eastwest;" vertex="1" parent="pdT_NjHJpdxYsYQ8o59m-1">
          <mxGeometry y="240" width="180" height="30" as="geometry" />
        </mxCell>
        <mxCell id="pdT_NjHJpdxYsYQ8o59m-76" value="" style="shape=partialRectangle;connectable=0;fillColor=none;top=0;left=0;bottom=0;right=0;editable=1;overflow=hidden;" vertex="1" parent="pdT_NjHJpdxYsYQ8o59m-75">
          <mxGeometry width="30" height="30" as="geometry" />
        </mxCell>
        <mxCell id="pdT_NjHJpdxYsYQ8o59m-77" value="更新日時" style="shape=partialRectangle;connectable=0;fillColor=none;top=0;left=0;bottom=0;right=0;align=left;spacingLeft=6;overflow=hidden;" vertex="1" parent="pdT_NjHJpdxYsYQ8o59m-75">
          <mxGeometry x="30" width="150" height="30" as="geometry" />
        </mxCell>
        <mxCell id="pdT_NjHJpdxYsYQ8o59m-20" value="ROOM" style="shape=table;startSize=30;container=1;collapsible=1;childLayout=tableLayout;fixedRows=1;rowLines=0;fontStyle=1;align=center;resizeLast=1;" vertex="1" parent="1">
          <mxGeometry x="900" y="40" width="180" height="200" as="geometry" />
        </mxCell>
        <mxCell id="pdT_NjHJpdxYsYQ8o59m-21" value="" style="shape=partialRectangle;collapsible=0;dropTarget=0;pointerEvents=0;fillColor=none;top=0;left=0;bottom=1;right=0;points=[[0,0.5],[1,0.5]];portConstraint=eastwest;" vertex="1" parent="pdT_NjHJpdxYsYQ8o59m-20">
          <mxGeometry y="30" width="180" height="30" as="geometry" />
        </mxCell>
        <mxCell id="pdT_NjHJpdxYsYQ8o59m-22" value="PK" style="shape=partialRectangle;connectable=0;fillColor=none;top=0;left=0;bottom=0;right=0;fontStyle=1;overflow=hidden;" vertex="1" parent="pdT_NjHJpdxYsYQ8o59m-21">
          <mxGeometry width="30" height="30" as="geometry" />
        </mxCell>
        <mxCell id="pdT_NjHJpdxYsYQ8o59m-23" value="ID" style="shape=partialRectangle;connectable=0;fillColor=none;top=0;left=0;bottom=0;right=0;align=left;spacingLeft=6;fontStyle=5;overflow=hidden;" vertex="1" parent="pdT_NjHJpdxYsYQ8o59m-21">
          <mxGeometry x="30" width="150" height="30" as="geometry" />
        </mxCell>
        <mxCell id="pdT_NjHJpdxYsYQ8o59m-24" value="" style="shape=partialRectangle;collapsible=0;dropTarget=0;pointerEvents=0;fillColor=none;top=0;left=0;bottom=0;right=0;points=[[0,0.5],[1,0.5]];portConstraint=eastwest;" vertex="1" parent="pdT_NjHJpdxYsYQ8o59m-20">
          <mxGeometry y="60" width="180" height="30" as="geometry" />
        </mxCell>
        <mxCell id="pdT_NjHJpdxYsYQ8o59m-25" value="" style="shape=partialRectangle;connectable=0;fillColor=none;top=0;left=0;bottom=0;right=0;editable=1;overflow=hidden;" vertex="1" parent="pdT_NjHJpdxYsYQ8o59m-24">
          <mxGeometry width="30" height="30" as="geometry" />
        </mxCell>
        <mxCell id="pdT_NjHJpdxYsYQ8o59m-26" value="ルーム名" style="shape=partialRectangle;connectable=0;fillColor=none;top=0;left=0;bottom=0;right=0;align=left;spacingLeft=6;overflow=hidden;" vertex="1" parent="pdT_NjHJpdxYsYQ8o59m-24">
          <mxGeometry x="30" width="150" height="30" as="geometry" />
        </mxCell>
        <mxCell id="pdT_NjHJpdxYsYQ8o59m-67" value="" style="shape=partialRectangle;collapsible=0;dropTarget=0;pointerEvents=0;fillColor=none;top=0;left=0;bottom=0;right=0;points=[[0,0.5],[1,0.5]];portConstraint=eastwest;" vertex="1" parent="pdT_NjHJpdxYsYQ8o59m-20">
          <mxGeometry y="90" width="180" height="30" as="geometry" />
        </mxCell>
        <mxCell id="pdT_NjHJpdxYsYQ8o59m-68" value="" style="shape=partialRectangle;connectable=0;fillColor=none;top=0;left=0;bottom=0;right=0;editable=1;overflow=hidden;" vertex="1" parent="pdT_NjHJpdxYsYQ8o59m-67">
          <mxGeometry width="30" height="30" as="geometry" />
        </mxCell>
        <mxCell id="pdT_NjHJpdxYsYQ8o59m-69" value="ルーム説明文" style="shape=partialRectangle;connectable=0;fillColor=none;top=0;left=0;bottom=0;right=0;align=left;spacingLeft=6;overflow=hidden;" vertex="1" parent="pdT_NjHJpdxYsYQ8o59m-67">
          <mxGeometry x="30" width="150" height="30" as="geometry" />
        </mxCell>
        <mxCell id="pdT_NjHJpdxYsYQ8o59m-27" value="" style="shape=partialRectangle;collapsible=0;dropTarget=0;pointerEvents=0;fillColor=none;top=0;left=0;bottom=0;right=0;points=[[0,0.5],[1,0.5]];portConstraint=eastwest;" vertex="1" parent="pdT_NjHJpdxYsYQ8o59m-20">
          <mxGeometry y="120" width="180" height="30" as="geometry" />
        </mxCell>
        <mxCell id="pdT_NjHJpdxYsYQ8o59m-28" value="" style="shape=partialRectangle;connectable=0;fillColor=none;top=0;left=0;bottom=0;right=0;editable=1;overflow=hidden;" vertex="1" parent="pdT_NjHJpdxYsYQ8o59m-27">
          <mxGeometry width="30" height="30" as="geometry" />
        </mxCell>
        <mxCell id="pdT_NjHJpdxYsYQ8o59m-29" value="" style="shape=partialRectangle;connectable=0;fillColor=none;top=0;left=0;bottom=0;right=0;align=left;spacingLeft=6;overflow=hidden;" vertex="1" parent="pdT_NjHJpdxYsYQ8o59m-27">
          <mxGeometry x="30" width="150" height="30" as="geometry" />
        </mxCell>
        <mxCell id="pdT_NjHJpdxYsYQ8o59m-30" value="" style="shape=partialRectangle;collapsible=0;dropTarget=0;pointerEvents=0;fillColor=none;top=0;left=0;bottom=0;right=0;points=[[0,0.5],[1,0.5]];portConstraint=eastwest;" vertex="1" parent="pdT_NjHJpdxYsYQ8o59m-20">
          <mxGeometry y="150" width="180" height="30" as="geometry" />
        </mxCell>
        <mxCell id="pdT_NjHJpdxYsYQ8o59m-31" value="" style="shape=partialRectangle;connectable=0;fillColor=none;top=0;left=0;bottom=0;right=0;editable=1;overflow=hidden;" vertex="1" parent="pdT_NjHJpdxYsYQ8o59m-30">
          <mxGeometry width="30" height="30" as="geometry" />
        </mxCell>
        <mxCell id="pdT_NjHJpdxYsYQ8o59m-32" value="" style="shape=partialRectangle;connectable=0;fillColor=none;top=0;left=0;bottom=0;right=0;align=left;spacingLeft=6;overflow=hidden;" vertex="1" parent="pdT_NjHJpdxYsYQ8o59m-30">
          <mxGeometry x="30" width="150" height="30" as="geometry" />
        </mxCell>
        <mxCell id="pdT_NjHJpdxYsYQ8o59m-33" value="USERROOM" style="shape=table;startSize=30;container=1;collapsible=1;childLayout=tableLayout;fixedRows=1;rowLines=0;fontStyle=1;align=center;resizeLast=1;" vertex="1" parent="1">
          <mxGeometry x="480" y="40" width="180" height="180" as="geometry" />
        </mxCell>
        <mxCell id="pdT_NjHJpdxYsYQ8o59m-34" value="" style="shape=partialRectangle;collapsible=0;dropTarget=0;pointerEvents=0;fillColor=none;top=0;left=0;bottom=1;right=0;points=[[0,0.5],[1,0.5]];portConstraint=eastwest;" vertex="1" parent="pdT_NjHJpdxYsYQ8o59m-33">
          <mxGeometry y="30" width="180" height="30" as="geometry" />
        </mxCell>
        <mxCell id="pdT_NjHJpdxYsYQ8o59m-35" value="PK" style="shape=partialRectangle;connectable=0;fillColor=none;top=0;left=0;bottom=0;right=0;fontStyle=1;overflow=hidden;" vertex="1" parent="pdT_NjHJpdxYsYQ8o59m-34">
          <mxGeometry width="30" height="30" as="geometry" />
        </mxCell>
        <mxCell id="pdT_NjHJpdxYsYQ8o59m-36" value="ID" style="shape=partialRectangle;connectable=0;fillColor=none;top=0;left=0;bottom=0;right=0;align=left;spacingLeft=6;fontStyle=5;overflow=hidden;" vertex="1" parent="pdT_NjHJpdxYsYQ8o59m-34">
          <mxGeometry x="30" width="150" height="30" as="geometry" />
        </mxCell>
        <mxCell id="pdT_NjHJpdxYsYQ8o59m-37" value="" style="shape=partialRectangle;collapsible=0;dropTarget=0;pointerEvents=0;fillColor=none;top=0;left=0;bottom=0;right=0;points=[[0,0.5],[1,0.5]];portConstraint=eastwest;" vertex="1" parent="pdT_NjHJpdxYsYQ8o59m-33">
          <mxGeometry y="60" width="180" height="30" as="geometry" />
        </mxCell>
        <mxCell id="pdT_NjHJpdxYsYQ8o59m-38" value="FK" style="shape=partialRectangle;connectable=0;fillColor=none;top=0;left=0;bottom=0;right=0;editable=1;overflow=hidden;" vertex="1" parent="pdT_NjHJpdxYsYQ8o59m-37">
          <mxGeometry width="30" height="30" as="geometry" />
        </mxCell>
        <mxCell id="pdT_NjHJpdxYsYQ8o59m-39" value="userID" style="shape=partialRectangle;connectable=0;fillColor=none;top=0;left=0;bottom=0;right=0;align=left;spacingLeft=6;overflow=hidden;" vertex="1" parent="pdT_NjHJpdxYsYQ8o59m-37">
          <mxGeometry x="30" width="150" height="30" as="geometry" />
        </mxCell>
        <mxCell id="pdT_NjHJpdxYsYQ8o59m-40" value="" style="shape=partialRectangle;collapsible=0;dropTarget=0;pointerEvents=0;fillColor=none;top=0;left=0;bottom=0;right=0;points=[[0,0.5],[1,0.5]];portConstraint=eastwest;" vertex="1" parent="pdT_NjHJpdxYsYQ8o59m-33">
          <mxGeometry y="90" width="180" height="30" as="geometry" />
        </mxCell>
        <mxCell id="pdT_NjHJpdxYsYQ8o59m-41" value="FK" style="shape=partialRectangle;connectable=0;fillColor=none;top=0;left=0;bottom=0;right=0;editable=1;overflow=hidden;" vertex="1" parent="pdT_NjHJpdxYsYQ8o59m-40">
          <mxGeometry width="30" height="30" as="geometry" />
        </mxCell>
        <mxCell id="pdT_NjHJpdxYsYQ8o59m-42" value="roomID" style="shape=partialRectangle;connectable=0;fillColor=none;top=0;left=0;bottom=0;right=0;align=left;spacingLeft=6;overflow=hidden;" vertex="1" parent="pdT_NjHJpdxYsYQ8o59m-40">
          <mxGeometry x="30" width="150" height="30" as="geometry" />
        </mxCell>
        <mxCell id="pdT_NjHJpdxYsYQ8o59m-43" value="" style="shape=partialRectangle;collapsible=0;dropTarget=0;pointerEvents=0;fillColor=none;top=0;left=0;bottom=0;right=0;points=[[0,0.5],[1,0.5]];portConstraint=eastwest;" vertex="1" parent="pdT_NjHJpdxYsYQ8o59m-33">
          <mxGeometry y="120" width="180" height="30" as="geometry" />
        </mxCell>
        <mxCell id="pdT_NjHJpdxYsYQ8o59m-44" value="" style="shape=partialRectangle;connectable=0;fillColor=none;top=0;left=0;bottom=0;right=0;editable=1;overflow=hidden;" vertex="1" parent="pdT_NjHJpdxYsYQ8o59m-43">
          <mxGeometry width="30" height="30" as="geometry" />
        </mxCell>
        <mxCell id="pdT_NjHJpdxYsYQ8o59m-45" value="" style="shape=partialRectangle;connectable=0;fillColor=none;top=0;left=0;bottom=0;right=0;align=left;spacingLeft=6;overflow=hidden;" vertex="1" parent="pdT_NjHJpdxYsYQ8o59m-43">
          <mxGeometry x="30" width="150" height="30" as="geometry" />
        </mxCell>
        <mxCell id="pdT_NjHJpdxYsYQ8o59m-46" style="edgeStyle=orthogonalEdgeStyle;rounded=0;orthogonalLoop=1;jettySize=auto;html=1;exitX=1;exitY=0.5;exitDx=0;exitDy=0;entryX=0;entryY=0.5;entryDx=0;entryDy=0;" edge="1" parent="1" source="pdT_NjHJpdxYsYQ8o59m-2" target="pdT_NjHJpdxYsYQ8o59m-37">
          <mxGeometry relative="1" as="geometry" />
        </mxCell>
        <mxCell id="pdT_NjHJpdxYsYQ8o59m-47" style="edgeStyle=orthogonalEdgeStyle;rounded=0;orthogonalLoop=1;jettySize=auto;html=1;exitX=0;exitY=0.5;exitDx=0;exitDy=0;entryX=1;entryY=0.5;entryDx=0;entryDy=0;" edge="1" parent="1" source="pdT_NjHJpdxYsYQ8o59m-21" target="pdT_NjHJpdxYsYQ8o59m-40">
          <mxGeometry relative="1" as="geometry" />
        </mxCell>
        <mxCell id="pdT_NjHJpdxYsYQ8o59m-48" value="CHAT" style="shape=table;startSize=30;container=1;collapsible=1;childLayout=tableLayout;fixedRows=1;rowLines=0;fontStyle=1;align=center;resizeLast=1;" vertex="1" parent="1">
          <mxGeometry x="480" y="240" width="180" height="210" as="geometry" />
        </mxCell>
        <mxCell id="pdT_NjHJpdxYsYQ8o59m-49" value="" style="shape=partialRectangle;collapsible=0;dropTarget=0;pointerEvents=0;fillColor=none;top=0;left=0;bottom=1;right=0;points=[[0,0.5],[1,0.5]];portConstraint=eastwest;" vertex="1" parent="pdT_NjHJpdxYsYQ8o59m-48">
          <mxGeometry y="30" width="180" height="30" as="geometry" />
        </mxCell>
        <mxCell id="pdT_NjHJpdxYsYQ8o59m-50" value="PK" style="shape=partialRectangle;connectable=0;fillColor=none;top=0;left=0;bottom=0;right=0;fontStyle=1;overflow=hidden;" vertex="1" parent="pdT_NjHJpdxYsYQ8o59m-49">
          <mxGeometry width="30" height="30" as="geometry" />
        </mxCell>
        <mxCell id="pdT_NjHJpdxYsYQ8o59m-51" value="ID" style="shape=partialRectangle;connectable=0;fillColor=none;top=0;left=0;bottom=0;right=0;align=left;spacingLeft=6;fontStyle=5;overflow=hidden;" vertex="1" parent="pdT_NjHJpdxYsYQ8o59m-49">
          <mxGeometry x="30" width="150" height="30" as="geometry" />
        </mxCell>
        <mxCell id="pdT_NjHJpdxYsYQ8o59m-52" value="" style="shape=partialRectangle;collapsible=0;dropTarget=0;pointerEvents=0;fillColor=none;top=0;left=0;bottom=0;right=0;points=[[0,0.5],[1,0.5]];portConstraint=eastwest;" vertex="1" parent="pdT_NjHJpdxYsYQ8o59m-48">
          <mxGeometry y="60" width="180" height="30" as="geometry" />
        </mxCell>
        <mxCell id="pdT_NjHJpdxYsYQ8o59m-53" value="" style="shape=partialRectangle;connectable=0;fillColor=none;top=0;left=0;bottom=0;right=0;editable=1;overflow=hidden;" vertex="1" parent="pdT_NjHJpdxYsYQ8o59m-52">
          <mxGeometry width="30" height="30" as="geometry" />
        </mxCell>
        <mxCell id="pdT_NjHJpdxYsYQ8o59m-54" value="userID" style="shape=partialRectangle;connectable=0;fillColor=none;top=0;left=0;bottom=0;right=0;align=left;spacingLeft=6;overflow=hidden;" vertex="1" parent="pdT_NjHJpdxYsYQ8o59m-52">
          <mxGeometry x="30" width="150" height="30" as="geometry" />
        </mxCell>
        <mxCell id="pdT_NjHJpdxYsYQ8o59m-55" value="" style="shape=partialRectangle;collapsible=0;dropTarget=0;pointerEvents=0;fillColor=none;top=0;left=0;bottom=0;right=0;points=[[0,0.5],[1,0.5]];portConstraint=eastwest;" vertex="1" parent="pdT_NjHJpdxYsYQ8o59m-48">
          <mxGeometry y="90" width="180" height="30" as="geometry" />
        </mxCell>
        <mxCell id="pdT_NjHJpdxYsYQ8o59m-56" value="" style="shape=partialRectangle;connectable=0;fillColor=none;top=0;left=0;bottom=0;right=0;editable=1;overflow=hidden;" vertex="1" parent="pdT_NjHJpdxYsYQ8o59m-55">
          <mxGeometry width="30" height="30" as="geometry" />
        </mxCell>
        <mxCell id="pdT_NjHJpdxYsYQ8o59m-57" value="roomID" style="shape=partialRectangle;connectable=0;fillColor=none;top=0;left=0;bottom=0;right=0;align=left;spacingLeft=6;overflow=hidden;" vertex="1" parent="pdT_NjHJpdxYsYQ8o59m-55">
          <mxGeometry x="30" width="150" height="30" as="geometry" />
        </mxCell>
        <mxCell id="pdT_NjHJpdxYsYQ8o59m-58" value="" style="shape=partialRectangle;collapsible=0;dropTarget=0;pointerEvents=0;fillColor=none;top=0;left=0;bottom=0;right=0;points=[[0,0.5],[1,0.5]];portConstraint=eastwest;" vertex="1" parent="pdT_NjHJpdxYsYQ8o59m-48">
          <mxGeometry y="120" width="180" height="30" as="geometry" />
        </mxCell>
        <mxCell id="pdT_NjHJpdxYsYQ8o59m-59" value="" style="shape=partialRectangle;connectable=0;fillColor=none;top=0;left=0;bottom=0;right=0;editable=1;overflow=hidden;" vertex="1" parent="pdT_NjHJpdxYsYQ8o59m-58">
          <mxGeometry width="30" height="30" as="geometry" />
        </mxCell>
        <mxCell id="pdT_NjHJpdxYsYQ8o59m-60" value="メッセージ" style="shape=partialRectangle;connectable=0;fillColor=none;top=0;left=0;bottom=0;right=0;align=left;spacingLeft=6;overflow=hidden;" vertex="1" parent="pdT_NjHJpdxYsYQ8o59m-58">
          <mxGeometry x="30" width="150" height="30" as="geometry" />
        </mxCell>
        <mxCell id="pdT_NjHJpdxYsYQ8o59m-64" style="edgeStyle=orthogonalEdgeStyle;rounded=0;orthogonalLoop=1;jettySize=auto;html=1;exitX=0;exitY=0.5;exitDx=0;exitDy=0;entryX=1;entryY=0.5;entryDx=0;entryDy=0;" edge="1" parent="1" source="pdT_NjHJpdxYsYQ8o59m-21" target="pdT_NjHJpdxYsYQ8o59m-55">
          <mxGeometry relative="1" as="geometry" />
        </mxCell>
        <mxCell id="pdT_NjHJpdxYsYQ8o59m-65" style="edgeStyle=orthogonalEdgeStyle;rounded=0;orthogonalLoop=1;jettySize=auto;html=1;exitX=1;exitY=0.5;exitDx=0;exitDy=0;entryX=0;entryY=0.5;entryDx=0;entryDy=0;" edge="1" parent="1" source="pdT_NjHJpdxYsYQ8o59m-2" target="pdT_NjHJpdxYsYQ8o59m-52">
          <mxGeometry relative="1" as="geometry" />
        </mxCell>
        <mxCell id="pdT_NjHJpdxYsYQ8o59m-78" value="登録日時" style="shape=partialRectangle;connectable=0;fillColor=none;top=0;left=0;bottom=0;right=0;align=left;spacingLeft=6;overflow=hidden;" vertex="1" parent="1">
          <mxGeometry x="510" y="160" width="150" height="30" as="geometry" />
        </mxCell>
        <mxCell id="pdT_NjHJpdxYsYQ8o59m-79" value="更新日時" style="shape=partialRectangle;connectable=0;fillColor=none;top=0;left=0;bottom=0;right=0;align=left;spacingLeft=6;overflow=hidden;" vertex="1" parent="1">
          <mxGeometry x="510" y="190" width="150" height="30" as="geometry" />
        </mxCell>
        <mxCell id="pdT_NjHJpdxYsYQ8o59m-80" value="" style="shape=partialRectangle;collapsible=0;dropTarget=0;pointerEvents=0;fillColor=none;top=0;left=0;bottom=0;right=0;points=[[0,0.5],[1,0.5]];portConstraint=eastwest;" vertex="1" parent="1">
          <mxGeometry x="480" y="380" width="180" height="40" as="geometry" />
        </mxCell>
        <mxCell id="pdT_NjHJpdxYsYQ8o59m-81" value="" style="shape=partialRectangle;connectable=0;fillColor=none;top=0;left=0;bottom=0;right=0;editable=1;overflow=hidden;" vertex="1" parent="pdT_NjHJpdxYsYQ8o59m-80">
          <mxGeometry width="30" height="30" as="geometry" />
        </mxCell>
        <mxCell id="pdT_NjHJpdxYsYQ8o59m-82" value="登録日時" style="shape=partialRectangle;connectable=0;fillColor=none;top=0;left=0;bottom=0;right=0;align=left;spacingLeft=6;overflow=hidden;" vertex="1" parent="pdT_NjHJpdxYsYQ8o59m-80">
          <mxGeometry x="30" y="10" width="150" height="30" as="geometry" />
        </mxCell>
        <mxCell id="pdT_NjHJpdxYsYQ8o59m-83" value="更新日時" style="shape=partialRectangle;connectable=0;fillColor=none;top=0;left=0;bottom=0;right=0;align=left;spacingLeft=6;overflow=hidden;" vertex="1" parent="1">
          <mxGeometry x="510" y="420" width="150" height="30" as="geometry" />
        </mxCell>
        <mxCell id="pdT_NjHJpdxYsYQ8o59m-84" value="登録日時" style="shape=partialRectangle;connectable=0;fillColor=none;top=0;left=0;bottom=0;right=0;align=left;spacingLeft=6;overflow=hidden;" vertex="1" parent="1">
          <mxGeometry x="930" y="160" width="150" height="30" as="geometry" />
        </mxCell>
        <mxCell id="pdT_NjHJpdxYsYQ8o59m-85" value="更新日時" style="shape=partialRectangle;connectable=0;fillColor=none;top=0;left=0;bottom=0;right=0;align=left;spacingLeft=6;overflow=hidden;" vertex="1" parent="1">
          <mxGeometry x="930" y="190" width="150" height="30" as="geometry" />
        </mxCell>
      </root>
    </mxGraphModel>
  </diagram>
</mxfile>
